# xmcd
#
# Track frame offsets: 
#        182
#        36497
#        79902
#        108387
#        134220
#        176567
#        204227
#        230170
#
# Disc length: 3429 seconds
#
# Revision: 1
# Processed by: cddbd v1.5.2PL0 Copyright (c) Steve Scherf et al.
# Submitted via: ExactAudioCopy v1.0b1
#
DISCID=740d6308
DTITLE=Sonny Rollins - Compilation
DYEAR=1900
DGENRE=Jazz
TTITLE0=Decision
TTITLE1=Sonnyspere
TTITLE2=How are things in glocca morra
TTITLE3=Why don't I
TTITLE4=Misterioso
TTITLE5=Poor Butterfly
TTITLE6=Tune Up
TTITLE7=Wonderful ! Wonderful !
EXTD=
EXTT0=
EXTT1=
EXTT2=
EXTT3=
EXTT4=
EXTT5=
EXTT6=
EXTT7=
PLAYORDER=
